<svg xmlns="http://www.w3.org/2000/svg" width="48" height="48" viewBox="0 0 48 48" fill="none">
<mask id="mask0_903_20170" style="mask-type:luminance" maskUnits="userSpaceOnUse" x="0" y="0" width="48" height="48">
<path d="M48 0L0 0L0 48L48 48L48 0Z" fill="white"/>
</mask>
<g mask="url(#mask0_903_20170)">
<path d="M47.9562 20.5779C47.7146 18.6226 47.1431 16.7266 46.2676 14.9766C45.366 13.1089 43.8276 12.0779 41.8284 11.8906C39.769 11.7126 37.7791 11.0344 36.0196 9.91088C33.7466 8.47576 31.9647 6.33803 30.925 3.7984C30.1855 2.01298 28.9663 0.766683 27.134 0.327328C26.1109 0.0805192 25.0336 0.0822696 24.25 0C23.247 0.0647656 22.5243 0.0945227 21.8033 0.159288C19.706 0.346584 18.1897 1.43359 17.2441 3.37307C16.9671 3.93669 16.7459 4.53184 16.4369 5.07621C14.1995 9.01992 10.8747 11.3252 6.49952 11.8416C3.96662 12.1409 2.22231 13.3645 1.33411 15.8273C0.91196 16.9931 0.537091 18.1834 0.229768 19.3859C-0.403456 21.861 0.287179 23.888 2.11593 25.6366C5.76499 29.1235 7.10742 33.4592 6.12971 38.5093C5.65352 40.9597 6.21584 43.0061 8.07667 44.5971C9.05 45.4189 10.0646 46.1867 11.1161 46.8973C13.2033 48.3237 15.314 48.2976 17.472 46.9813C19.9281 45.4653 22.8078 44.8587 25.6397 45.2605C27.514 45.504 29.2399 46.1971 30.8743 47.1861C32.6895 48.2765 34.5892 48.3029 36.3791 47.1861C37.7279 46.3307 39.0055 45.3605 40.1988 44.2856C41.7186 42.9256 42.3164 41.1035 41.9111 39.0536C41.4535 36.7589 41.3706 34.4832 41.9599 32.1901C42.6423 29.5451 44.0788 27.1749 46.0818 25.3898C47.4818 24.1155 48.1756 22.4806 47.9562 20.5779ZM25.5621 10.8526C25.5594 10.4861 25.5763 10.1197 25.6127 9.75509C25.7917 8.68032 26.7474 8.27248 27.6018 8.90789C29.51 10.3275 31.4079 11.7611 33.3076 13.1911C34.8036 14.3184 36.2964 15.451 37.8026 16.566C38.1724 16.8408 38.414 17.1664 38.3634 17.6442C38.3042 18.1974 38.1034 18.6665 37.546 18.8923C35.1972 19.848 32.8551 20.8177 30.5063 21.77C29.8527 22.036 29.314 21.8942 28.9106 21.3516C28.1732 20.3525 27.1727 19.5956 26.0298 19.1723C25.3881 18.9273 25.0825 18.4722 25.096 17.9681C25.2564 15.5297 25.4101 13.1894 25.5621 10.8526ZM26.5229 25.2463C26.523 25.936 26.2612 26.5981 25.7942 27.0893C25.3272 27.5808 24.6924 27.8619 24.0271 27.872C23.3524 27.8653 22.7063 27.5885 22.2243 27.0989C21.7424 26.6094 21.462 25.9454 21.4419 25.2463C21.4396 24.8959 21.505 24.5485 21.6342 24.2247C21.7634 23.9008 21.9539 23.6071 22.1943 23.3608C22.4348 23.1144 22.7204 22.9205 23.0343 22.7904C23.3482 22.6603 23.6841 22.5966 24.0221 22.6032C25.4557 22.6067 26.5246 23.7339 26.5229 25.2428V25.2463ZM10.2651 16.5345C13.6423 14.0057 17.015 11.4711 20.3832 8.93064C20.558 8.79056 20.7659 8.70187 20.9853 8.67384C21.2046 8.64579 21.4271 8.67947 21.6295 8.77131C21.8319 8.86317 22.0068 9.00979 22.1357 9.19584C22.2646 9.38187 22.3428 9.60043 22.3622 9.82861C22.4838 11.0277 22.553 12.2529 22.6273 13.459C22.71 14.77 22.7742 16.0846 22.8553 17.5322C22.8553 17.5462 22.8553 17.6967 22.8553 17.8455C22.8671 18.5194 22.6037 18.9553 21.9924 19.1863C20.8479 19.6066 19.8443 20.3595 19.1015 21.3551C18.6557 21.9467 18.1711 22.0693 17.4923 21.791C15.1738 20.8475 12.8605 19.8935 10.5403 18.9553C10.0186 18.7435 9.66734 18.4092 9.59134 17.8123C9.51536 17.2154 9.83619 16.8565 10.2651 16.5345ZM14.0306 36.5837C13.6929 37.0021 13.3062 37.2315 12.7743 37.1421C12.2424 37.0528 11.9571 36.6869 11.795 36.1672C10.4947 32.0104 9.19115 27.8509 7.88416 23.6884C7.5988 22.7887 8.45998 21.826 9.34648 22.0553C11.8366 22.7041 14.3239 23.3629 16.8084 24.0315C17.0952 24.0918 17.3529 24.2534 17.5376 24.4886C17.7224 24.7239 17.8227 25.0182 17.8216 25.3216C17.8506 26.5433 18.2073 27.7325 18.8516 28.756C19.0133 29.0667 19.1533 29.3888 19.2704 29.7203C19.1319 30.0056 19.0542 30.2821 18.8904 30.4888C17.2761 32.5264 15.6466 34.5464 14.0306 36.5837ZM31.2543 40.2403C30.9796 40.4581 30.6458 40.5805 30.3002 40.5904C28.1911 40.6203 26.0788 40.6061 23.9731 40.6061C21.8674 40.6061 19.7837 40.5432 17.6949 40.636C16.778 40.6763 16.0772 39.4107 16.5906 38.5915C17.9853 36.3701 19.3396 34.1227 20.7175 31.8909C20.8588 31.6349 21.0819 31.4381 21.3483 31.3347C21.6147 31.2312 21.9076 31.2272 22.1764 31.3237C23.3357 31.6893 24.5728 31.6968 25.736 31.3448C26.5195 31.1136 26.918 31.308 27.3588 32.0205C28.686 34.1864 30.0138 36.352 31.342 38.5179C31.7458 39.176 31.7458 39.8149 31.261 40.2352L31.2543 40.2403ZM40.0231 23.9247C38.7484 27.9928 37.4615 32.0571 36.1986 36.1269C36.038 36.6432 35.7764 36.9811 35.2631 37.0792C35.0202 37.1357 34.7666 37.1192 34.5322 37.0315C34.298 36.9437 34.0927 36.7883 33.941 36.5837C32.3554 34.5883 30.7578 32.6016 29.174 30.6043C28.6943 30.0005 28.6826 29.4667 29.0946 28.8224C29.7311 27.8536 30.0948 26.72 30.145 25.5491C30.1786 24.7439 30.3746 24.2328 31.3826 23.9842C33.8042 23.3838 36.2071 22.7099 38.6183 22.0728C39.4204 21.8627 40.1567 22.4229 40.1599 23.3838C40.126 23.5647 40.0826 23.7435 40.03 23.9195L40.0231 23.9247Z" fill="white"/>
</g>
</svg>