<svg xmlns="http://www.w3.org/2000/svg" width="24" height="24" viewBox="0 0 24 24" fill="none">
<path d="M8.8325 18.2542H8.38385C4.79462 18.2542 3 17.3569 3 12.8704V8.38385C3 4.79462 4.79462 3 8.38385 3H15.5623C19.1515 3 20.9462 4.79462 20.9462 8.38385V12.8704C20.9462 16.4596 19.1515 18.2542 15.5623 18.2542H15.1137C14.8355 18.2542 14.5663 18.3888 14.3958 18.6132L13.0499 20.4078C12.4576 21.1974 11.4885 21.1974 10.8963 20.4078L9.55035 18.6132C9.40678 18.4158 9.07478 18.2542 8.8325 18.2542Z" stroke="#9192AD" stroke-width="1.5" stroke-miterlimit="10" stroke-linecap="round" stroke-linejoin="round"/>
<path d="M7.48633 8.38281H16.4594M7.48633 12.8694H12.8702" stroke="#9192AD" stroke-width="1.5" stroke-linecap="round" stroke-linejoin="round"/>
</svg>