<svg xmlns="http://www.w3.org/2000/svg" width="24" height="24" viewBox="0 0 24 24" fill="none">
  <path d="M12.3983 4.77344C9.76615 4.77344 7.627 6.91259 7.627 9.54478V11.843C7.627 12.3281 7.42024 13.0676 7.17372 13.4811L6.25922 15C5.69461 15.9384 6.08427 16.9801 7.11806 17.33C10.5455 18.4751 14.2433 18.4751 17.6707 17.33C18.6329 17.0119 19.0544 15.8748 18.5295 15L17.615 13.4811C17.3764 13.0676 17.1697 12.3281 17.1697 11.843V9.54478C17.1697 6.92054 15.0226 4.77344 12.3983 4.77344Z" stroke="#468FC5" stroke-width="1.5" stroke-miterlimit="10" stroke-linecap="round"/>
  <path d="M13.8701 5.00198C12.9084 4.7281 11.8894 4.7281 10.9277 5.00198C11.1583 4.41352 11.7309 4 12.3989 4C13.0669 4 13.6394 4.41352 13.8701 5.00198Z" stroke="#468FC5" stroke-width="1.5" stroke-miterlimit="10" stroke-linecap="round" stroke-linejoin="round"/>
  <path d="M15.2713 18.2031C15.2713 19.5152 13.9728 20.5888 12.3857 20.5888C11.5969 20.5888 10.8659 20.3184 10.3465 19.889C9.80603 19.4415 9.50173 18.8355 9.5 18.2031" stroke="#468FC5" stroke-width="1.5" stroke-miterlimit="10"/>
</svg>