<svg xmlns="http://www.w3.org/2000/svg" width="24" height="24" viewBox="0 0 24 24" fill="none">
<path d="M9.67969 14.4297L11.0297 15.7797L14.6297 12.1797" stroke="#9192AD" stroke-width="1.5" stroke-linecap="round" stroke-linejoin="round"/>
<path d="M10.3 6.6H13.9C15.7 6.6 15.7 5.7 15.7 4.8C15.7 3 14.8 3 13.9 3H10.3C9.4 3 8.5 3 8.5 4.8C8.5 6.6 9.4 6.6 10.3 6.6Z" stroke="#9192AD" stroke-width="1.5" stroke-miterlimit="10" stroke-linecap="round" stroke-linejoin="round"/>
<path d="M15.7 4.82031C18.697 4.98231 20.2 6.08931 20.2 10.2023V15.6023C20.2 19.2023 19.3 21.0023 14.8 21.0023H9.4C4.9 21.0023 4 19.2023 4 15.6023V10.2023C4 6.09831 5.503 4.98231 8.5 4.82031" stroke="#9192AD" stroke-width="1.5" stroke-miterlimit="10" stroke-linecap="round" stroke-linejoin="round"/>
</svg>